<mxfile host="app.diagrams.net" modified="2025-04-15T12:00:51.536Z" agent="Mozilla/5.0 (Windows NT 10.0; Win64; x64) AppleWebKit/537.36 (KHTML, like Gecko) Chrome/135.0.0.0 Safari/537.36" version="24.2.3" etag="gh-c-7KeydYi90ycFm1G" type="github">
  <diagram name="Сторінка-1" id="PqSpFxGHC2gWd2dFbg91">
    <mxGraphModel>
      <root>
        <mxCell id="0" />
        <mxCell id="1" parent="0" />
      </root>
    </mxGraphModel>
  </diagram>
</mxfile>
